<?xml version="1.0" standalone="no"?>
<!DOCTYPE svg PUBLIC "-//W3C//DTD SVG 20010904//EN"
 "http://www.w3.org/TR/2001/REC-SVG-20010904/DTD/svg10.dtd">
<svg version="1.0" xmlns="http://www.w3.org/2000/svg"
 width="8000.000000pt" height="4501.000000pt" viewBox="0 0 8000.000000 4501.000000"
 preserveAspectRatio="xMidYMid meet">

<g transform="translate(0.000000,4501.000000) scale(0.100000,-0.100000)"
fill="#000000" stroke="none">
<path d="M40282 33446 c-33 -31 -37 -39 -37 -84 0 -63 26 -101 82 -121 48 -17
83 -10 124 27 86 77 31 212 -88 212 -35 0 -50 -6 -81 -34z"/>
<path d="M40064 33060 c-41 -16 -74 -68 -74 -116 0 -36 6 -51 33 -80 28 -31
42 -37 84 -41 47 -5 54 -3 88 29 32 29 38 42 43 86 4 50 3 53 -36 92 -33 33
-46 40 -78 39 -22 0 -48 -4 -60 -9z"/>
<path d="M40469 33055 c-55 -30 -80 -117 -50 -174 41 -77 167 -80 216 -5 21
32 24 99 6 133 -29 53 -116 76 -172 46z"/>
<path d="M39495 32710 c-265 -56 -405 -129 -405 -212 0 -46 62 -96 173 -137
l27 -11 -2 -2221 -3 -2221 -75 -30 c-681 -270 -1245 -792 -1570 -1453 -152
-307 -229 -558 -287 -925 -28 -180 -25 -653 5 -849 124 -791 539 -1483 1177
-1961 784 -588 1795 -753 2730 -445 343 112 651 280 945 513 123 97 353 328
460 462 743 929 866 2210 313 3270 -211 405 -539 781 -913 1046 -181 129 -408
254 -606 333 l-94 38 -3 2221 -2 2221 62 26 c85 37 136 82 136 122 0 17 -7 42
-15 56 -21 31 -134 90 -223 115 -60 18 -254 62 -270 62 -3 0 -5 -43 -5 -95 0
-89 1 -95 21 -95 11 0 52 -7 91 -16 80 -18 77 -26 -19 -44 l-63 -12 0 -2383 0
-2383 83 -27 c491 -161 928 -459 1258 -855 444 -533 671 -1264 609 -1955 -9
-102 -47 -354 -55 -363 -1 -1 -44 9 -95 22 -207 56 -378 54 -555 -5 -102 -34
-177 -74 -320 -169 -464 -309 -907 -427 -1500 -399 -479 22 -846 117 -1310
339 -344 165 -600 248 -905 291 -105 15 -381 15 -475 0 -38 -6 -88 -14 -111
-17 l-41 -6 -7 48 c-65 452 -54 763 39 1143 220 892 869 1601 1751 1910 65 23
121 46 124 51 3 4 4 1077 2 2383 l-2 2375 -38 7 c-20 3 -55 11 -77 17 l-40 11
70 18 c39 10 80 19 92 19 15 0 24 7 28 23 8 37 1 160 -10 163 -5 1 -50 -6
-100 -16z m1691 -9228 c13 -9 34 -46 34 -62 0 -18 -48 -60 -68 -60 -25 0 -58
29 -66 56 -13 46 59 94 100 66z m-825 -341 c23 -23 29 -38 29 -71 0 -80 -76
-123 -151 -85 -89 46 -51 185 51 185 33 0 48 -6 71 -29z m550 3 c37 -19 63
-75 55 -119 -4 -17 -20 -45 -37 -61 -25 -24 -39 -29 -75 -28 -68 1 -122 64
-110 128 16 79 95 118 167 80z"/>
<path d="M40753 31615 c-148 -89 -81 -315 94 -315 93 0 173 79 173 170 0 131
-152 214 -267 145z"/>
<path d="M37315 31509 c-311 -42 -600 -186 -824 -410 -201 -200 -341 -466
-397 -754 -26 -133 -24 -396 5 -528 62 -288 184 -518 383 -723 l98 -101 -98
-169 c-135 -234 -507 -877 -612 -1059 -48 -82 -182 -316 -300 -520 -232 -403
-391 -678 -396 -684 -1 -1 -31 6 -66 17 -138 45 -225 57 -418 57 -142 0 -205
-4 -270 -19 -131 -28 -236 -63 -345 -116 -410 -198 -690 -560 -786 -1013 -32
-147 -32 -399 0 -547 60 -283 179 -512 370 -712 367 -386 924 -537 1432 -387
36 10 71 19 77 19 5 0 48 -66 94 -147 85 -150 484 -840 761 -1318 83 -143 184
-318 225 -390 41 -71 133 -230 204 -353 l130 -223 -79 -77 c-212 -208 -350
-465 -409 -768 -24 -121 -24 -375 -1 -499 59 -305 187 -548 401 -760 268 -267
592 -408 966 -420 253 -8 467 42 700 161 363 186 656 564 733 947 l13 62 1420
3 1420 2 12 -60 c85 -407 397 -799 784 -980 202 -94 379 -133 608 -133 179 -1
293 17 446 68 492 164 846 561 959 1075 25 118 31 353 11 489 -44 294 -182
572 -393 791 -51 52 -93 98 -93 102 0 7 144 261 300 528 177 304 1008 1745
1054 1828 47 83 28 80 189 38 470 -120 992 24 1342 370 223 222 363 497 411
809 21 131 13 372 -15 500 -61 277 -191 515 -391 715 -161 161 -333 269 -546
343 -170 59 -255 72 -464 72 -192 0 -273 -11 -413 -55 -59 -19 -63 -19 -75 -3
-14 19 -36 57 -264 453 -75 129 -278 483 -453 785 -175 303 -350 606 -390 675
-39 69 -121 211 -182 315 l-109 190 82 82 c200 198 336 448 399 733 25 118 31
353 11 490 -62 425 -329 817 -703 1030 -410 235 -915 252 -1335 45 -201 -100
-390 -256 -523 -434 -300 -399 -365 -950 -165 -1414 277 -641 994 -995 1660
-820 52 14 104 26 114 27 16 1 43 -39 126 -184 147 -255 612 -1060 726 -1257
161 -279 277 -479 426 -738 l145 -250 -86 -87 c-403 -404 -526 -1012 -314
-1539 73 -181 167 -323 313 -472 l87 -88 -155 -267 c-85 -147 -214 -370 -287
-497 -73 -126 -224 -387 -335 -580 -600 -1041 -633 -1096 -649 -1089 -42 16
-210 54 -288 65 -109 14 -328 7 -441 -16 -272 -53 -516 -181 -714 -373 -207
-201 -343 -433 -404 -695 l-18 -77 -1419 2 -1419 3 -23 91 c-101 400 -376 739
-753 928 -89 45 -248 99 -357 121 -107 22 -328 30 -442 16 -79 -10 -247 -47
-293 -65 -11 -4 -68 86 -229 367 -118 204 -294 509 -391 677 -97 168 -273 472
-390 675 -117 204 -251 434 -297 513 -45 78 -90 156 -99 173 l-15 31 98 101
c156 161 266 343 333 546 52 160 65 247 65 446 0 202 -12 278 -71 455 -67 200
-208 425 -358 568 -36 35 -66 66 -66 68 0 3 40 73 88 157 49 84 125 215 169
292 45 77 137 237 206 355 68 118 177 307 242 420 65 113 150 261 190 330 40
69 132 229 205 355 156 270 287 494 298 513 7 11 21 10 78 -7 198 -58 460 -73
654 -38 578 107 1023 541 1152 1125 18 79 22 131 22 277 1 257 -33 411 -139
630 -69 144 -158 268 -275 385 -201 201 -442 331 -722 391 -108 23 -364 33
-473 18z m360 -518 c191 -40 345 -122 478 -257 346 -350 354 -907 18 -1266
-181 -194 -403 -291 -666 -291 -259 -1 -477 91 -660 277 -346 352 -348 914 -6
1270 220 229 536 329 836 267z m5705 -10 c253 -65 479 -249 595 -486 71 -143
88 -223 89 -400 1 -124 -3 -164 -21 -231 -89 -326 -338 -576 -662 -661 -79
-21 -119 -26 -226 -26 -257 0 -461 83 -646 264 -202 196 -298 472 -266 764 36
340 292 651 625 760 153 50 354 56 512 16z m-8455 -4881 c323 -87 568 -336
658 -664 31 -114 30 -334 -2 -451 -73 -273 -270 -503 -522 -612 -129 -56 -218
-75 -359 -75 -145 -1 -230 15 -355 65 -244 100 -446 316 -525 562 -56 175 -62
325 -19 504 76 325 350 599 674 674 109 25 112 26 245 22 88 -2 148 -9 205
-25z m11220 11 c633 -130 939 -861 585 -1398 -129 -196 -333 -341 -552 -393
-596 -141 -1162 329 -1131 940 27 556 553 964 1098 851z m-8419 -4890 c162
-42 302 -121 421 -239 117 -116 187 -237 240 -411 23 -76 26 -103 26 -236 0
-174 -17 -255 -83 -393 -50 -104 -88 -161 -164 -240 -124 -130 -281 -222 -452
-264 -109 -26 -292 -29 -399 -5 -274 60 -512 244 -637 492 -74 146 -109 343
-89 506 50 413 355 735 768 809 82 15 279 5 369 -19z m5658 -1 c339 -91 591
-356 668 -703 16 -76 19 -114 15 -217 -11 -245 -89 -429 -256 -604 -256 -267
-638 -352 -989 -220 -259 97 -469 327 -553 605 -25 85 -38 256 -27 365 15 144
87 320 182 442 136 176 324 295 546 343 112 25 300 20 414 -11z"/>
<path d="M39961 30318 c-124 -34 -167 -179 -84 -279 76 -90 225 -73 280 31 73
138 -46 289 -196 248z"/>
<path d="M40657 29566 c-46 -17 -61 -29 -88 -73 -29 -47 -31 -126 -3 -173 55
-95 181 -117 261 -47 100 88 80 232 -42 288 -47 22 -77 23 -128 5z"/>
<path d="M39860 27987 c-142 -75 -105 -293 55 -323 114 -21 221 94 195 210
-12 54 -38 87 -90 114 -56 28 -105 28 -160 -1z"/>
<path d="M40475 27245 c-5 -2 -22 -6 -37 -9 -62 -14 -118 -91 -118 -162 0
-157 202 -235 302 -116 90 107 34 265 -102 286 -19 3 -39 3 -45 1z"/>
<path d="M40888 27062 c-21 -70 -38 -132 -38 -137 0 -6 37 -23 83 -38 45 -16
136 -55 202 -87 549 -266 952 -782 1076 -1380 11 -52 22 -96 23 -97 2 -2 64 6
139 18 160 25 149 9 113 171 -153 673 -602 1241 -1221 1543 -125 61 -307 135
-333 135 -4 0 -24 -57 -44 -128z"/>
<path d="M39898 26330 c-101 -29 -149 -147 -97 -240 58 -103 218 -108 278 -8
40 65 33 146 -17 201 -36 40 -112 61 -164 47z"/>
<path d="M40783 26159 c-107 -31 -153 -183 -82 -273 94 -119 289 -63 306 88
10 86 -41 162 -124 185 -44 13 -56 13 -100 0z"/>
<path d="M39559 25450 c-147 -77 -139 -281 13 -345 97 -40 218 10 250 104 15
47 13 123 -6 158 -46 90 -169 130 -257 83z"/>
<path d="M40403 25029 c-265 -47 -293 -419 -37 -506 91 -31 204 -2 270 69 54
56 68 95 69 178 0 86 -18 132 -72 186 -61 61 -145 87 -230 73z"/>
<path d="M37712 15628 c-188 -424 -340 -774 -338 -777 2 -3 68 -4 146 -1 l142
5 52 130 52 130 290 3 289 2 54 -135 54 -135 143 0 c79 0 144 3 144 6 0 3 -59
139 -131 303 -72 163 -224 505 -337 761 -113 256 -208 468 -212 472 -3 5 -160
-339 -348 -764z m442 -45 c47 -117 86 -214 86 -218 0 -3 -84 -5 -186 -5 -145
0 -185 3 -181 13 94 235 182 436 188 430 4 -4 46 -103 93 -220z"/>
<path d="M47390 16313 c-35 -49 -191 -266 -348 -483 -157 -217 -290 -401 -296
-408 -9 -9 -23 4 -61 58 -149 210 -657 905 -663 908 -4 1 -6 -344 -4 -768 l2
-770 125 0 125 0 2 383 3 382 70 -95 c39 -52 140 -192 225 -310 84 -118 156
-219 160 -223 4 -4 110 135 236 309 l229 317 3 -382 2 -381 130 0 130 0 0 775
c0 426 -1 775 -3 775 -2 0 -32 -39 -67 -87z"/>
<path d="M41385 16362 c-99 -26 -168 -57 -262 -119 -159 -104 -264 -255 -314
-453 -31 -121 -24 -310 15 -425 85 -250 266 -425 526 -506 65 -21 95 -24 225
-24 138 0 156 2 230 28 134 47 125 32 125 212 0 85 -3 155 -6 155 -4 0 -22
-14 -41 -30 -182 -161 -501 -143 -682 39 -282 282 -151 766 235 865 156 40
322 6 441 -90 23 -19 44 -34 47 -34 3 0 6 70 6 155 0 180 8 165 -125 211 -106
37 -310 44 -420 16z"/>
<path d="M31998 16363 l-518 -3 0 -125 0 -125 195 0 195 0 0 -630 0 -630 130
0 130 0 2 628 3 627 193 3 192 2 0 130 c0 72 -1 129 -2 128 -2 -2 -236 -4
-520 -5z"/>
<path d="M33160 15609 c0 -416 2 -758 4 -760 2 -2 61 -3 130 -1 l126 3 0 315
0 314 273 -2 272 -3 3 -312 2 -313 125 0 125 0 0 754 0 755 -125 3 -125 3 -2
-315 -3 -315 -272 -3 -273 -2 0 314 0 315 -130 3 -130 3 0 -756z"/>
<path d="M42600 15609 c0 -416 2 -758 4 -760 2 -2 61 -3 130 -1 l126 3 0 315
0 314 273 -2 272 -3 3 -312 2 -313 125 0 125 0 0 754 0 755 -125 3 -125 3 -2
-315 -3 -315 -272 -3 -273 -2 0 314 0 315 -130 3 -130 3 0 -756z"/>
<path d="M44390 15608 l0 -758 475 0 475 0 0 125 0 125 -345 0 -345 0 0 190 0
190 305 0 305 0 0 125 0 125 -305 0 -305 0 0 190 0 190 345 0 345 0 0 125 0
125 -475 2 -475 3 0 -757z"/>
<path d="M34950 15605 l0 -755 475 0 475 0 0 125 0 125 -345 0 -345 0 0 190 0
190 305 0 305 0 0 125 0 125 -305 0 -305 0 0 190 0 190 345 0 345 0 0 125 0
125 -475 0 -475 0 0 -755z"/>
<path d="M39360 15605 l0 -755 415 0 415 0 0 125 0 125 -285 0 -285 0 0 630 0
630 -130 0 -130 0 0 -755z"/>
<path d="M48011 16308 c37 -62 272 -461 371 -630 l68 -116 0 -356 0 -356 125
0 125 0 0 355 0 356 226 387 c125 213 231 393 237 400 7 9 -24 12 -151 12
l-160 0 -134 -261 c-74 -143 -138 -261 -143 -261 -5 0 -68 116 -141 259 l-133
258 -160 3 -161 2 31 -52z"/>
<path d="M34787 13368 c-2 -7 -98 -242 -212 -523 -114 -280 -210 -516 -213
-523 -3 -10 6 -12 38 -10 l43 3 45 113 46 112 260 0 261 0 45 -113 45 -112 38
-3 c25 -2 37 1 37 10 0 15 -409 1038 -420 1051 -4 5 -10 2 -13 -5z m124 -469
c60 -150 109 -274 109 -276 0 -2 -102 -3 -226 -3 -177 0 -225 3 -221 13 66
169 222 546 224 543 3 -2 54 -127 114 -277z"/>
<path d="M35950 12845 l0 -537 233 4 c210 4 237 7 289 27 189 74 277 305 186
484 -27 54 -95 125 -140 148 l-38 20 29 37 c85 106 50 259 -72 325 -39 20 -57
22 -264 25 l-223 3 0 -536z m450 437 c46 -23 80 -75 80 -122 0 -47 -34 -99
-80 -122 -29 -15 -63 -18 -207 -18 l-173 0 0 63 c0 35 3 98 6 140 l7 77 166 0
c138 0 172 -3 201 -18z m35 -353 c22 -8 65 -38 97 -69 46 -45 60 -66 73 -114
42 -146 -42 -298 -189 -341 -40 -12 -93 -15 -222 -13 l-169 3 -3 265 c-1 146
0 271 3 278 7 19 351 11 410 -9z"/>
<path d="M39210 12846 l0 -536 35 0 35 0 2 183 3 182 132 3 c100 2 134 -1 145
-11 7 -8 72 -91 143 -185 l130 -171 49 -1 c37 0 46 3 39 13 -164 215 -263 347
-263 350 0 2 27 14 59 26 81 29 152 95 193 178 28 58 32 75 32 147 0 67 -5 92
-28 143 -34 76 -103 143 -184 181 -56 26 -62 27 -289 30 l-233 4 0 -536z m518
420 c56 -31 111 -96 131 -155 41 -123 -21 -269 -143 -334 -38 -20 -57 -22
-238 -25 l-198 -4 0 277 0 277 198 -4 c197 -3 197 -3 250 -32z"/>
<path d="M40972 13153 c-50 -126 -146 -361 -212 -523 -66 -162 -120 -300 -120
-308 0 -9 11 -12 38 -10 l37 3 45 112 45 113 261 0 262 0 45 -112 45 -113 42
-3 c32 -2 41 0 37 10 -91 234 -420 1045 -425 1050 -5 5 -49 -94 -100 -219z
m205 -240 c56 -142 105 -266 109 -275 6 -17 -9 -18 -221 -18 -178 0 -226 3
-222 13 37 89 217 532 217 534 0 2 3 3 8 3 4 0 53 -116 109 -257z"/>
<path d="M45350 12845 l0 -535 35 0 c30 0 35 4 35 23 1 12 2 94 3 182 l2 160
136 2 137 1 141 -184 142 -184 44 0 c25 0 45 2 45 4 0 2 -61 84 -135 182 -129
170 -134 179 -113 188 124 46 189 100 235 194 24 50 28 69 28 147 0 79 -3 97
-29 150 -52 105 -141 173 -255 195 -30 5 -143 10 -252 10 l-199 0 0 -535z
m516 423 c93 -49 147 -139 147 -243 0 -104 -54 -194 -147 -243 -50 -26 -56
-27 -248 -30 l-198 -4 0 277 0 277 198 -4 c192 -3 198 -4 248 -30z"/>
<path d="M46780 13375 c0 -10 38 -81 201 -381 l159 -292 0 -196 0 -196 40 0
40 0 0 203 0 202 180 325 c155 279 178 326 163 332 -55 21 -54 22 -212 -265
-83 -150 -157 -281 -164 -290 -11 -16 -32 18 -171 273 l-158 290 -39 0 c-21 0
-39 -2 -39 -5z"/>
<path d="M33070 12840 l0 -530 286 0 287 0 -7 31 c-3 17 -6 35 -6 40 0 5 -110
9 -245 9 l-245 0 0 490 0 490 -35 0 -35 0 0 -530z"/>
<path d="M37816 13359 c-222 -52 -396 -280 -396 -517 1 -174 92 -342 241 -441
153 -102 369 -112 541 -25 117 59 227 201 263 340 69 265 -91 553 -353 634
-69 22 -222 26 -296 9z m249 -74 c84 -22 147 -60 210 -126 147 -154 172 -382
62 -555 -33 -52 -124 -137 -175 -163 -182 -93 -400 -56 -539 92 -88 92 -125
187 -124 315 1 132 47 239 142 327 118 108 273 149 424 110z"/>
<path d="M42220 13335 l0 -35 150 0 150 0 0 -495 0 -495 35 0 35 0 0 495 0
495 150 0 150 0 0 35 0 35 -335 0 -335 0 0 -35z"/>
<path d="M43940 13351 c-185 -59 -311 -192 -361 -381 -20 -74 -15 -215 11
-290 56 -166 203 -305 369 -350 58 -15 196 -16 262 0 177 41 330 189 383 370
22 73 22 218 0 290 -50 170 -186 309 -352 360 -84 26 -233 27 -312 1z m310
-80 c167 -64 282 -215 297 -391 21 -246 -172 -471 -417 -487 -139 -10 -255 33
-356 132 -250 246 -132 672 211 762 69 18 197 10 265 -16z"/>
</g>
</svg>
